# xmcd
#
# Track frame offsets:
#	150
#	12563
#	25752
#	39836
#	51632
#	61909
#	71110
#	82896
#	101937
#	112190
#	123693
#	132901
#	135067
#	155027
#	165708
#	181879
#	197694
#
# Disc length: 2853 seconds
#
# Revision: 0
# Processed by: cddbd v1.4PL0 Copyright (c) Steve Scherf et al.
# Submitted via: dBpowerAMP V4.0
#
DISCID=f00b2311
DTITLE=Lyle Lovett - I Love Everybody
DYEAR=1900
DGENRE=
TTITLE0=Skinny Legs
TTITLE1=Fat Babies
TTITLE2=I Think You Know What I Mean
TTITLE3=Hello Grandma
TTITLE4=Creeps Like Me
TTITLE5=Sonja
TTITLE6=They Don't Like Me
TTITLE7=Record Lady
TTITLE8=Ain't It Something
TTITLE9=Penguins
TTITLE10=The Fat Girl
TTITLE11=Old Friend
TTITLE12=Just the Morning
TTITLE13=Moon on My Shoulder
TTITLE14=I've Got the Blues
TTITLE15=Good-Bye to Carolina
TTITLE16=I Love Everybody
EXTD=
EXTT0=
EXTT1=
EXTT2=
EXTT3=
EXTT4=
EXTT5=
EXTT6=
EXTT7=
EXTT8=
EXTT9=
EXTT10=
EXTT11=
EXTT12=
EXTT13=
EXTT14=
EXTT15=
EXTT16=
PLAYORDER=
